<svg xmlns="http://www.w3.org/2000/svg" viewBox="0 0 100 100">
  <!-- Blue speech bubble with A -->
  <path d="M5 10 Q2 10 2 13 L2 50 Q2 53 5 53 L8 53 L6 62 L15 53 L45 53 Q48 53 48 50 L48 13 Q48 10 45 10 Z" fill="#3B82F6"/>
  <text x="25" y="42" font-family="Arial, sans-serif" font-size="36" font-weight="bold" fill="white" text-anchor="middle">A</text>

  <!-- Red speech bubble with Ж -->
  <path d="M52 38 Q52 35 55 35 L92 35 L98 25 L95 35 L98 35 Q98 38 98 42 L98 87 Q98 90 95 90 L55 90 Q52 90 52 87 Z" fill="#EF4444"/>
  <text x="75" y="72" font-family="Arial, sans-serif" font-size="36" font-weight="bold" fill="white" text-anchor="middle">Ж</text>
</svg>
