<svg xmlns="http://www.w3.org/2000/svg" viewBox="0 0 100 100">
  <!-- Blue speech bubble with A -->
  <path d="M20 20 Q15 20 15 25 L15 50 Q15 55 20 55 L25 55 L22 65 L30 55 L45 55 Q50 55 50 50 L50 25 Q50 20 45 20 Z" fill="#3B82F6"/>
  <text x="32" y="48" font-family="Arial, sans-serif" font-size="28" font-weight="bold" fill="white" text-anchor="middle">A</text>

  <!-- Red speech bubble with Ж -->
  <path d="M50 35 Q50 30 55 30 L75 30 L83 20 L80 30 L85 30 Q90 30 90 35 L90 60 Q90 65 85 65 L55 65 Q50 65 50 60 Z" fill="#EF4444"/>
  <text x="70" y="56" font-family="Arial, sans-serif" font-size="28" font-weight="bold" fill="white" text-anchor="middle">Ж</text>
</svg>
